<svg xmlns="http://www.w3.org/2000/svg" xmlns:xlink="http://www.w3.org/1999/xlink" width="700" zoomAndPan="magnify" viewBox="0 0 525 149.999998" height="200" preserveAspectRatio="xMidYMid meet" version="1.0"><defs><g/></defs><g fill="rgb(80.389404%, 79.60968%, 20.388794%)" fill-opacity="1"><g transform="translate(60.108069, 104.86924)"><g><path d="M 31.644531 -57.828125 C 29.78125 -57.828125 27.382812 -57.429688 25.714844 -56.230469 C 25.582031 -58.429688 23.382812 -59.894531 20.984375 -59.894531 C 18.585938 -59.894531 16.121094 -58.5625 14.921875 -55.230469 L -1.933594 -6.929688 C -2.199219 -6.128906 -2.398438 -5.394531 -2.398438 -4.730469 C -2.398438 -1.796875 0.0664062 0 2.730469 0 C 4.929688 0 7.261719 -1.332031 8.328125 -4.464844 L 12.792969 -17.589844 C 15.125 -15.390625 18.519531 -13.992188 22.25 -13.992188 C 28.78125 -13.992188 35.84375 -17.988281 38.839844 -26.449219 L 44.105469 -41.238281 C 44.703125 -42.90625 45.035156 -44.636719 45.035156 -46.101562 C 45.035156 -53.765625 38.972656 -57.828125 31.644531 -57.828125 Z M 33.042969 -40.90625 L 28.980469 -28.980469 C 27.847656 -25.648438 25.316406 -23.917969 22.71875 -23.917969 C 19.785156 -23.917969 17.386719 -26.117188 17.386719 -29.113281 C 17.386719 -29.648438 17.457031 -30.046875 17.65625 -30.578125 L 22.25 -44.105469 C 23.519531 -47.769531 26.25 -49.035156 28.914062 -49.035156 C 31.578125 -49.035156 33.578125 -47.300781 33.578125 -44.105469 C 33.578125 -43.238281 33.445312 -42.171875 33.042969 -40.90625 Z M 33.042969 -40.90625 "/></g></g></g><g fill="rgb(80.389404%, 79.60968%, 20.388794%)" fill-opacity="1"><g transform="translate(98.68166, 104.86924)"><g><path d="M 28.179688 -13.925781 C 28.179688 -13.859375 28.179688 -14.921875 27.914062 -16.1875 C 28.382812 -16.523438 28.847656 -17.054688 29.246094 -17.65625 C 30.378906 -19.320312 32.378906 -25.117188 32.378906 -27.78125 C 32.378906 -34.578125 26.78125 -39.105469 19.585938 -39.105469 C 13.324219 -39.105469 7.394531 -35.644531 5.261719 -29.714844 L 0.398438 -15.988281 C -0.199219 -14.324219 -0.464844 -12.660156 -0.464844 -11.191406 C -0.464844 -4.195312 5.53125 0 12.324219 0 C 17.523438 0 22.25 -1.664062 25.050781 -6.460938 C 26.25 -6.128906 27.648438 -5.929688 29.046875 -5.929688 C 36.910156 -5.929688 43.105469 -11.527344 45.371094 -18.519531 C 45.570312 -19.253906 45.703125 -19.921875 45.703125 -20.519531 C 45.703125 -22.984375 43.902344 -24.382812 41.972656 -24.382812 C 40.171875 -24.382812 38.308594 -23.316406 37.574219 -20.851562 C 36.109375 -16.722656 33.042969 -13.859375 29.113281 -13.859375 C 28.847656 -13.859375 28.449219 -13.859375 28.179688 -13.925781 Z M 21.984375 -24.183594 C 21.785156 -23.585938 21.585938 -23.050781 21.519531 -22.519531 C 17.855469 -22.917969 14.589844 -19.921875 14.589844 -15.921875 C 14.65625 -13.65625 15.789062 -12.457031 17.054688 -11.390625 C 16.1875 -9.0625 14.257812 -7.929688 12.191406 -7.929688 C 9.59375 -7.929688 8.925781 -9.527344 8.925781 -11.125 C 8.925781 -12.390625 9.261719 -13.589844 9.527344 -14.257812 L 14.257812 -27.78125 C 15.058594 -29.980469 17.386719 -31.246094 19.453125 -31.246094 C 21.519531 -31.246094 22.851562 -29.847656 22.851562 -28.316406 C 22.851562 -27.117188 22.453125 -25.582031 21.984375 -24.183594 Z M 21.984375 -24.183594 "/></g></g></g><g fill="rgb(80.389404%, 79.60968%, 20.388794%)" fill-opacity="1"><g transform="translate(133.45785, 104.86924)"><g><path d="M 9.128906 -10.859375 L 23.117188 -51.367188 C 23.382812 -52.164062 23.519531 -52.964844 23.519531 -53.632812 C 23.519531 -56.164062 21.121094 -57.828125 19.121094 -57.828125 C 16.589844 -57.828125 14.921875 -56.429688 13.859375 -53.429688 L 0 -13.859375 C -0.53125 -12.324219 -0.800781 -10.925781 -0.800781 -9.527344 C -0.800781 -3.398438 4.265625 0 10.125 0 C 16.457031 0 24.382812 -3.929688 29.046875 -17.789062 C 29.179688 -18.253906 29.246094 -18.722656 29.246094 -19.121094 C 29.246094 -21.253906 27.382812 -22.785156 25.316406 -22.785156 C 23.652344 -22.785156 21.851562 -21.785156 20.917969 -19.320312 C 17.921875 -11.324219 14.058594 -7.929688 10.925781 -7.929688 C 9.59375 -7.929688 8.859375 -8.726562 8.859375 -9.726562 C 8.859375 -9.992188 8.992188 -10.460938 9.128906 -10.859375 Z M 9.128906 -10.859375 "/></g></g></g><g fill="rgb(80.389404%, 79.60968%, 20.388794%)" fill-opacity="1"><g transform="translate(152.045125, 104.86924)"><g><path d="M 17.921875 -45.238281 C 20.917969 -45.238281 23.382812 -47.703125 23.382812 -50.765625 C 23.382812 -53.765625 20.917969 -56.164062 17.921875 -56.164062 C 14.921875 -56.164062 12.457031 -53.765625 12.457031 -50.765625 C 12.457031 -47.703125 14.921875 -45.238281 17.921875 -45.238281 Z M 8.925781 -11.257812 L 16.257812 -32.179688 C 16.523438 -33.042969 16.855469 -33.976562 16.855469 -34.644531 C 16.855469 -37.574219 14.65625 -39.105469 12.390625 -39.105469 C 10.328125 -39.105469 8.128906 -37.640625 7.0625 -34.511719 C 4.929688 -28.246094 2.132812 -20.320312 0 -14.125 C -0.398438 -12.792969 -0.933594 -10.992188 -0.933594 -9.859375 C -0.933594 -3.597656 4.265625 0 10.394531 0 C 16.921875 0 24.117188 -3.996094 28.78125 -17.789062 C 28.914062 -18.1875 28.980469 -18.585938 28.980469 -18.988281 C 28.980469 -21.050781 26.980469 -22.320312 24.984375 -22.320312 C 23.183594 -22.320312 21.386719 -21.386719 20.585938 -19.320312 C 17.457031 -10.660156 13.925781 -7.929688 11.257812 -7.929688 C 9.726562 -7.929688 8.726562 -8.925781 8.726562 -10.191406 C 8.726562 -10.527344 8.792969 -10.859375 8.925781 -11.257812 Z M 8.925781 -11.257812 "/></g></g></g><g fill="rgb(80.389404%, 79.60968%, 20.388794%)" fill-opacity="1"><g transform="translate(170.432541, 104.86924)"><g><path d="M 21.121094 -14.988281 C 25.582031 -18.65625 28.847656 -22.652344 28.847656 -28.382812 C 28.847656 -34.3125 23.71875 -39.105469 16.257812 -39.105469 L 7.460938 -39.105469 C 4.53125 -39.105469 3.132812 -36.84375 3.132812 -34.511719 C 3.132812 -32.246094 4.53125 -29.914062 7.195312 -29.914062 L 15.589844 -29.914062 C 17.921875 -29.914062 18.722656 -28.980469 18.722656 -27.714844 C 18.722656 -25.515625 16.324219 -22.519531 14.722656 -21.1875 C 13.058594 -22.652344 10.59375 -23.382812 8.394531 -23.382812 C 7.863281 -23.382812 7.328125 -23.316406 6.796875 -23.25 C 1.730469 -22.386719 0.332031 -18.1875 0.332031 -15.789062 C 0.332031 -11.460938 4.128906 -9.460938 7.726562 -9.460938 C 8.992188 -9.460938 10.191406 -9.726562 11.257812 -10.191406 C 12.125 -8.859375 12.457031 -6.996094 12.457031 -5.328125 C 12.457031 -3.996094 12.257812 -2.796875 11.925781 -1.933594 C 9.859375 -1.066406 5.796875 -0.265625 3.265625 0.332031 C -3.796875 2.199219 -9.527344 4.398438 -11.324219 10.191406 C -11.660156 11.324219 -11.792969 12.324219 -11.792969 13.324219 C -11.792969 19.785156 -5.796875 24.050781 0.734375 24.050781 C 9.925781 24.050781 19.519531 12.792969 21.519531 3.199219 C 31.113281 0.199219 38.640625 -3.863281 43.238281 -17.855469 C 43.4375 -18.386719 43.503906 -18.921875 43.503906 -19.386719 C 43.503906 -21.652344 41.773438 -22.984375 39.773438 -22.984375 C 37.976562 -22.984375 36.042969 -21.851562 35.109375 -19.253906 C 32.777344 -12.660156 28.847656 -8.59375 23.519531 -6.527344 C 23.585938 -6.996094 23.585938 -7.394531 23.585938 -7.792969 C 23.585938 -11.125 22.453125 -13.457031 21.121094 -14.988281 Z M 9.394531 6.996094 C 6.664062 13.722656 2.53125 15.65625 0.53125 15.65625 C -1 15.65625 -1.730469 14.722656 -1.730469 13.523438 C -1.730469 13.125 -1.597656 12.589844 -1.398438 12.125 C -0.464844 9.792969 4.996094 8.128906 9.394531 6.996094 Z M 9.394531 6.996094 "/></g></g></g><g fill="rgb(80.389404%, 79.60968%, 20.388794%)" fill-opacity="1"><g transform="translate(203.276728, 104.86924)"><g><path d="M 21.121094 -14.988281 C 25.582031 -18.65625 28.847656 -22.652344 28.847656 -28.382812 C 28.847656 -34.3125 23.71875 -39.105469 16.257812 -39.105469 L 7.460938 -39.105469 C 4.53125 -39.105469 3.132812 -36.84375 3.132812 -34.511719 C 3.132812 -32.246094 4.53125 -29.914062 7.195312 -29.914062 L 15.589844 -29.914062 C 17.921875 -29.914062 18.722656 -28.980469 18.722656 -27.714844 C 18.722656 -25.515625 16.324219 -22.519531 14.722656 -21.1875 C 13.058594 -22.652344 10.59375 -23.382812 8.394531 -23.382812 C 7.863281 -23.382812 7.328125 -23.316406 6.796875 -23.25 C 1.730469 -22.386719 0.332031 -18.1875 0.332031 -15.789062 C 0.332031 -11.460938 4.128906 -9.460938 7.726562 -9.460938 C 8.992188 -9.460938 10.191406 -9.726562 11.257812 -10.191406 C 12.125 -8.859375 12.457031 -6.996094 12.457031 -5.328125 C 12.457031 -3.996094 12.257812 -2.796875 11.925781 -1.933594 C 9.859375 -1.066406 5.796875 -0.265625 3.265625 0.332031 C -3.796875 2.199219 -9.527344 4.398438 -11.324219 10.191406 C -11.660156 11.324219 -11.792969 12.324219 -11.792969 13.324219 C -11.792969 19.785156 -5.796875 24.050781 0.734375 24.050781 C 9.925781 24.050781 19.519531 12.792969 21.519531 3.199219 C 31.113281 0.199219 38.640625 -3.863281 43.238281 -17.855469 C 43.4375 -18.386719 43.503906 -18.921875 43.503906 -19.386719 C 43.503906 -21.652344 41.773438 -22.984375 39.773438 -22.984375 C 37.976562 -22.984375 36.042969 -21.851562 35.109375 -19.253906 C 32.777344 -12.660156 28.847656 -8.59375 23.519531 -6.527344 C 23.585938 -6.996094 23.585938 -7.394531 23.585938 -7.792969 C 23.585938 -11.125 22.453125 -13.457031 21.121094 -14.988281 Z M 9.394531 6.996094 C 6.664062 13.722656 2.53125 15.65625 0.53125 15.65625 C -1 15.65625 -1.730469 14.722656 -1.730469 13.523438 C -1.730469 13.125 -1.597656 12.589844 -1.398438 12.125 C -0.464844 9.792969 4.996094 8.128906 9.394531 6.996094 Z M 9.394531 6.996094 "/></g></g></g><g fill="rgb(80.389404%, 79.60968%, 20.388794%)" fill-opacity="1"><g transform="translate(236.120915, 104.86924)"><g><path d="M 41.773438 -22.519531 C 39.90625 -22.519531 37.839844 -21.386719 37.042969 -18.855469 C 34.445312 -10.660156 30.246094 -7.929688 27.25 -7.929688 C 26.117188 -7.929688 25.449219 -8.527344 25.449219 -9.59375 C 25.449219 -10.125 25.582031 -10.792969 25.78125 -11.527344 L 33.246094 -33.113281 C 33.511719 -33.910156 33.644531 -34.644531 33.644531 -35.308594 C 33.644531 -38.242188 31.246094 -39.773438 28.78125 -39.773438 C 26.914062 -39.773438 24.984375 -38.90625 23.917969 -37.242188 C 22.519531 -38.109375 19.921875 -39.105469 16.523438 -39.105469 C 12.125 -39.105469 7.328125 -36.710938 5.53125 -31.578125 L -0.734375 -13.65625 C -1.132812 -12.457031 -1.398438 -11.257812 -1.398438 -10.058594 C -1.398438 -4.53125 3.066406 0 8.925781 0 C 12.058594 0 15.257812 -1.398438 17.722656 -3.597656 C 19.851562 -0.53125 24.582031 0 26.582031 0 C 32.113281 0 39.507812 -2.796875 43.769531 -13.589844 C 44.703125 -16.1875 45.4375 -17.855469 45.4375 -19.054688 C 45.4375 -21.320312 43.703125 -22.519531 41.773438 -22.519531 Z M 19.785156 -23.183594 L 16.589844 -13.257812 C 15.191406 -8.925781 12.660156 -7.929688 11.257812 -7.929688 C 9.792969 -7.929688 9.0625 -8.859375 9.0625 -10.394531 C 9.0625 -11.257812 9.261719 -12.058594 9.460938 -12.660156 L 13.722656 -26.050781 C 14.988281 -30.113281 16.855469 -30.644531 17.921875 -30.644531 C 19.1875 -30.644531 20.585938 -29.378906 20.585938 -27.117188 C 20.585938 -26.117188 20.320312 -24.851562 19.785156 -23.183594 Z M 19.785156 -23.183594 "/></g></g></g><g fill="rgb(80.389404%, 79.60968%, 20.388794%)" fill-opacity="1"><g transform="translate(271.096965, 104.86924)"><g><path d="M 23.71875 -7.863281 L 46.835938 -49.765625 C 47.703125 -51.300781 47.96875 -52.566406 47.96875 -53.699219 C 47.96875 -56.363281 46.101562 -57.828125 43.835938 -57.828125 C 41.707031 -57.828125 39.105469 -56.429688 37.640625 -53.164062 C 27.449219 -34.242188 21.652344 -23.585938 15.324219 -12.058594 C 14.324219 -10.328125 13.125 -8.992188 12.191406 -9.328125 C 11.859375 -9.394531 11.59375 -9.792969 11.59375 -10.527344 C 11.59375 -10.859375 11.660156 -11.257812 11.792969 -11.792969 L 20.71875 -50.300781 C 20.851562 -50.898438 20.917969 -51.5 20.917969 -52.03125 C 20.917969 -55.761719 18.1875 -57.828125 15.457031 -57.828125 C 13.058594 -57.828125 10.726562 -56.230469 9.992188 -52.765625 L 1.132812 -12.523438 C 0.867188 -11.460938 0.800781 -10.460938 0.800781 -9.59375 C 0.800781 -3.332031 6.527344 0 11.992188 0 C 15.855469 0 20.320312 -1.730469 23.71875 -7.863281 Z M 23.71875 -7.863281 "/></g></g></g><g fill="rgb(80.389404%, 79.60968%, 20.388794%)" fill-opacity="1"><g transform="translate(307.938423, 104.86924)"><g><path d="M 17.921875 -45.238281 C 20.917969 -45.238281 23.382812 -47.703125 23.382812 -50.765625 C 23.382812 -53.765625 20.917969 -56.164062 17.921875 -56.164062 C 14.921875 -56.164062 12.457031 -53.765625 12.457031 -50.765625 C 12.457031 -47.703125 14.921875 -45.238281 17.921875 -45.238281 Z M 8.925781 -11.257812 L 16.257812 -32.179688 C 16.523438 -33.042969 16.855469 -33.976562 16.855469 -34.644531 C 16.855469 -37.574219 14.65625 -39.105469 12.390625 -39.105469 C 10.328125 -39.105469 8.128906 -37.640625 7.0625 -34.511719 C 4.929688 -28.246094 2.132812 -20.320312 0 -14.125 C -0.398438 -12.792969 -0.933594 -10.992188 -0.933594 -9.859375 C -0.933594 -3.597656 4.265625 0 10.394531 0 C 16.921875 0 24.117188 -3.996094 28.78125 -17.789062 C 28.914062 -18.1875 28.980469 -18.585938 28.980469 -18.988281 C 28.980469 -21.050781 26.980469 -22.320312 24.984375 -22.320312 C 23.183594 -22.320312 21.386719 -21.386719 20.585938 -19.320312 C 17.457031 -10.660156 13.925781 -7.929688 11.257812 -7.929688 C 9.726562 -7.929688 8.726562 -8.925781 8.726562 -10.191406 C 8.726562 -10.527344 8.792969 -10.859375 8.925781 -11.257812 Z M 8.925781 -11.257812 "/></g></g></g><g fill="rgb(80.389404%, 79.60968%, 20.388794%)" fill-opacity="1"><g transform="translate(326.325828, 104.86924)"><g><path d="M 23.785156 -18.789062 C 21.121094 -11.460938 16.921875 -7.929688 13.058594 -7.929688 C 10.660156 -7.929688 9.195312 -9.394531 9.195312 -11.191406 C 9.195312 -11.660156 9.328125 -12.191406 9.460938 -12.660156 L 15.988281 -31.246094 L 20.320312 -31.246094 C 23.71875 -31.246094 25.515625 -33.644531 25.515625 -35.84375 C 25.515625 -37.574219 24.382812 -39.105469 21.851562 -39.105469 L 18.855469 -39.105469 L 23.316406 -52.097656 C 23.449219 -52.566406 23.519531 -52.964844 23.519531 -53.363281 C 23.519531 -55.828125 21.785156 -57.828125 18.855469 -57.828125 C 16.65625 -57.828125 14.789062 -56.296875 13.992188 -53.964844 L 8.660156 -39.105469 L 5.863281 -39.105469 C 2.265625 -39.105469 0.734375 -36.84375 0.734375 -34.710938 C 0.734375 -32.84375 1.867188 -31.246094 3.664062 -31.246094 L 5.863281 -31.246094 L 0.265625 -15.191406 L 0.265625 -15.257812 C -0.265625 -13.65625 -0.53125 -12.191406 -0.53125 -10.792969 C -0.53125 -3.996094 5.53125 0 12.390625 0 C 20.917969 0 28.046875 -6.328125 31.84375 -17.253906 C 31.980469 -17.722656 32.113281 -18.1875 32.113281 -18.585938 C 32.113281 -20.585938 30.179688 -21.851562 28.113281 -21.851562 C 26.449219 -21.851562 24.582031 -20.917969 23.785156 -18.789062 Z M 23.785156 -18.789062 "/></g></g></g><g fill="rgb(80.389404%, 79.60968%, 20.388794%)" fill-opacity="1"><g transform="translate(348.110914, 104.86924)"><g><path d="M 41.773438 -22.519531 C 39.90625 -22.519531 37.839844 -21.386719 37.042969 -18.855469 C 34.445312 -10.660156 30.246094 -7.929688 27.25 -7.929688 C 26.117188 -7.929688 25.449219 -8.527344 25.449219 -9.59375 C 25.449219 -10.125 25.582031 -10.792969 25.78125 -11.527344 L 33.246094 -33.113281 C 33.511719 -33.910156 33.644531 -34.644531 33.644531 -35.308594 C 33.644531 -38.242188 31.246094 -39.773438 28.78125 -39.773438 C 26.914062 -39.773438 24.984375 -38.90625 23.917969 -37.242188 C 22.519531 -38.109375 19.921875 -39.105469 16.523438 -39.105469 C 12.125 -39.105469 7.328125 -36.710938 5.53125 -31.578125 L -0.734375 -13.65625 C -1.132812 -12.457031 -1.398438 -11.257812 -1.398438 -10.058594 C -1.398438 -4.53125 3.066406 0 8.925781 0 C 12.058594 0 15.257812 -1.398438 17.722656 -3.597656 C 19.851562 -0.53125 24.582031 0 26.582031 0 C 32.113281 0 39.507812 -2.796875 43.769531 -13.589844 C 44.703125 -16.1875 45.4375 -17.855469 45.4375 -19.054688 C 45.4375 -21.320312 43.703125 -22.519531 41.773438 -22.519531 Z M 19.785156 -23.183594 L 16.589844 -13.257812 C 15.191406 -8.925781 12.660156 -7.929688 11.257812 -7.929688 C 9.792969 -7.929688 9.0625 -8.859375 9.0625 -10.394531 C 9.0625 -11.257812 9.261719 -12.058594 9.460938 -12.660156 L 13.722656 -26.050781 C 14.988281 -30.113281 16.855469 -30.644531 17.921875 -30.644531 C 19.1875 -30.644531 20.585938 -29.378906 20.585938 -27.117188 C 20.585938 -26.117188 20.320312 -24.851562 19.785156 -23.183594 Z M 19.785156 -23.183594 "/></g></g></g><g fill="rgb(80.389404%, 79.60968%, 20.388794%)" fill-opacity="1"><g transform="translate(383.086963, 104.86924)"><g><path d="M 14.257812 -10.925781 C 11.191406 -10.925781 8.792969 -8.527344 8.792969 -5.464844 C 8.792969 -2.464844 11.191406 0 14.257812 0 C 17.253906 0 19.71875 -2.464844 19.71875 -5.464844 C 19.71875 -8.527344 17.253906 -10.925781 14.257812 -10.925781 Z M 14.257812 -10.925781 "/></g></g></g><g fill="rgb(80.389404%, 79.60968%, 20.388794%)" fill-opacity="1"><g transform="translate(409.135798, 104.86924)"><g><path d="M 17.921875 -45.238281 C 20.917969 -45.238281 23.382812 -47.703125 23.382812 -50.765625 C 23.382812 -53.765625 20.917969 -56.164062 17.921875 -56.164062 C 14.921875 -56.164062 12.457031 -53.765625 12.457031 -50.765625 C 12.457031 -47.703125 14.921875 -45.238281 17.921875 -45.238281 Z M 8.925781 -11.257812 L 16.257812 -32.179688 C 16.523438 -33.042969 16.855469 -33.976562 16.855469 -34.644531 C 16.855469 -37.574219 14.65625 -39.105469 12.390625 -39.105469 C 10.328125 -39.105469 8.128906 -37.640625 7.0625 -34.511719 C 4.929688 -28.246094 2.132812 -20.320312 0 -14.125 C -0.398438 -12.792969 -0.933594 -10.992188 -0.933594 -9.859375 C -0.933594 -3.597656 4.265625 0 10.394531 0 C 16.921875 0 24.117188 -3.996094 28.78125 -17.789062 C 28.914062 -18.1875 28.980469 -18.585938 28.980469 -18.988281 C 28.980469 -21.050781 26.980469 -22.320312 24.984375 -22.320312 C 23.183594 -22.320312 21.386719 -21.386719 20.585938 -19.320312 C 17.457031 -10.660156 13.925781 -7.929688 11.257812 -7.929688 C 9.726562 -7.929688 8.726562 -8.925781 8.726562 -10.191406 C 8.726562 -10.527344 8.792969 -10.859375 8.925781 -11.257812 Z M 8.925781 -11.257812 "/></g></g></g><g fill="rgb(80.389404%, 79.60968%, 20.388794%)" fill-opacity="1"><g transform="translate(427.523225, 104.86924)"><g><path d="M 28.179688 -13.925781 C 28.179688 -13.859375 28.179688 -14.921875 27.914062 -16.1875 C 28.382812 -16.523438 28.847656 -17.054688 29.246094 -17.65625 C 30.378906 -19.320312 32.378906 -25.117188 32.378906 -27.78125 C 32.378906 -34.578125 26.78125 -39.105469 19.585938 -39.105469 C 13.324219 -39.105469 7.394531 -35.644531 5.261719 -29.714844 L 0.398438 -15.988281 C -0.199219 -14.324219 -0.464844 -12.660156 -0.464844 -11.191406 C -0.464844 -4.195312 5.53125 0 12.324219 0 C 17.523438 0 22.25 -1.664062 25.050781 -6.460938 C 26.25 -6.128906 27.648438 -5.929688 29.046875 -5.929688 C 36.910156 -5.929688 43.105469 -11.527344 45.371094 -18.519531 C 45.570312 -19.253906 45.703125 -19.921875 45.703125 -20.519531 C 45.703125 -22.984375 43.902344 -24.382812 41.972656 -24.382812 C 40.171875 -24.382812 38.308594 -23.316406 37.574219 -20.851562 C 36.109375 -16.722656 33.042969 -13.859375 29.113281 -13.859375 C 28.847656 -13.859375 28.449219 -13.859375 28.179688 -13.925781 Z M 21.984375 -24.183594 C 21.785156 -23.585938 21.585938 -23.050781 21.519531 -22.519531 C 17.855469 -22.917969 14.589844 -19.921875 14.589844 -15.921875 C 14.65625 -13.65625 15.789062 -12.457031 17.054688 -11.390625 C 16.1875 -9.0625 14.257812 -7.929688 12.191406 -7.929688 C 9.59375 -7.929688 8.925781 -9.527344 8.925781 -11.125 C 8.925781 -12.390625 9.261719 -13.589844 9.527344 -14.257812 L 14.257812 -27.78125 C 15.058594 -29.980469 17.386719 -31.246094 19.453125 -31.246094 C 21.519531 -31.246094 22.851562 -29.847656 22.851562 -28.316406 C 22.851562 -27.117188 22.453125 -25.582031 21.984375 -24.183594 Z M 21.984375 -24.183594 "/></g></g></g><path stroke-linecap="butt" transform="matrix(0.75, 0, 0, 0.75, 0.000004375, 28.36875)" fill="none" stroke-linejoin="miter" d="M 124.078126 25.904168 C 121.583335 25.904168 118.375001 26.425001 116.161459 28.029168 C 115.989584 25.102084 113.062501 23.148959 109.848959 23.148959 C 106.661459 23.148959 103.364584 24.925001 101.78125 29.352085 L 79.291665 93.763547 C 78.947915 94.826047 78.687499 95.800005 78.687499 96.69063 C 78.687499 100.591672 81.963541 102.997922 85.520832 102.997922 C 88.447916 102.997922 91.546875 101.22188 92.979166 97.055214 L 98.921875 79.555213 C 102.041667 82.482296 106.578125 84.346879 111.541667 84.346879 C 120.239585 84.346879 129.671877 79.013546 133.66146 67.737503 L 140.692711 48.023961 C 141.468752 45.789586 141.927086 43.49271 141.927086 41.539585 C 141.927086 31.326043 133.838544 25.904168 124.078126 25.904168 Z M 125.94271 48.456252 L 120.520835 64.352087 C 119.005209 68.800004 115.619793 71.117712 112.171876 71.117712 C 108.265625 71.117712 105.057292 68.169795 105.057292 64.180212 C 105.057292 63.46667 105.145834 62.945837 105.40625 62.227087 L 111.541667 44.185419 C 113.234376 39.30521 116.880209 37.612502 120.432293 37.612502 C 123.989585 37.612502 126.635418 39.935419 126.635418 44.185419 C 126.635418 45.357294 126.463543 46.763544 125.94271 48.456252 Z M 170.890629 84.435421 C 170.890629 84.523963 170.890629 83.091671 170.520837 81.419796 C 171.151046 80.966671 171.781254 80.247921 172.302088 79.471879 C 173.817713 77.237504 176.484379 69.513545 176.484379 65.956253 C 176.484379 56.893753 169.026046 50.862503 159.41667 50.862503 C 151.067711 50.862503 143.171878 55.482294 140.333336 63.378128 L 133.84896 81.680213 C 133.046877 83.893754 132.677085 86.12813 132.677085 88.081255 C 132.677085 97.404172 140.682294 102.997922 149.744795 102.997922 C 156.661462 102.997922 162.973962 100.789589 166.703129 94.388547 C 168.307296 94.826047 170.171879 95.086463 172.041671 95.086463 C 182.51563 95.086463 190.776047 87.622921 193.791672 78.300004 C 194.072922 77.320837 194.244797 76.435421 194.244797 75.633337 C 194.244797 72.357295 191.838547 70.492712 189.260422 70.492712 C 186.875005 70.492712 184.380213 71.898962 183.401047 75.195837 C 181.45313 80.706254 177.375005 84.523963 172.125004 84.523963 C 171.781254 84.523963 171.239587 84.523963 170.890629 84.435421 Z M 162.625004 70.753129 C 162.343754 71.555212 162.083337 72.268754 162.000004 72.987504 C 157.119795 72.440629 152.76042 76.435421 152.76042 81.768754 C 152.848961 84.784379 154.364587 86.388546 156.057295 87.820838 C 154.88542 90.919797 152.328128 92.44063 149.57292 92.44063 C 146.104169 92.44063 145.213544 90.289588 145.213544 88.164588 C 145.213544 86.477088 145.645836 84.867713 146.015628 83.982296 L 152.328128 65.956253 C 153.390628 63.02917 156.489587 61.34167 159.244795 61.34167 C 162.000004 61.34167 163.776045 63.206253 163.776045 65.242712 C 163.776045 66.846878 163.234379 68.888545 162.625004 70.753129 Z M 191.838547 88.513546 L 210.48959 34.513543 C 210.859381 33.451043 211.036465 32.388543 211.036465 31.497918 C 211.036465 28.112501 207.822923 25.904168 205.177089 25.904168 C 201.796881 25.904168 199.583339 27.768751 198.151047 31.758335 L 179.677088 84.523963 C 178.958338 86.560421 178.614588 88.425005 178.614588 90.289588 C 178.614588 98.466672 185.354172 102.997922 193.187505 102.997922 C 201.619798 102.997922 212.182298 97.75313 218.406257 79.273962 C 218.58334 78.664587 218.666674 78.039587 218.666674 77.497921 C 218.666674 74.654171 216.171882 72.617712 213.421882 72.617712 C 211.20834 72.617712 208.80209 73.961462 207.562506 77.237504 C 203.572923 87.904171 198.411464 92.44063 194.250005 92.44063 C 192.468755 92.44063 191.494797 91.352088 191.494797 90.029171 C 191.494797 89.685421 191.666672 89.055213 191.838547 88.513546 Z M 228.359382 42.690627 C 232.348966 42.690627 235.645841 39.393752 235.645841 35.315627 C 235.645841 31.326043 232.348966 28.112501 228.359382 28.112501 C 224.364591 28.112501 221.067715 31.326043 221.067715 35.315627 C 221.067715 39.393752 224.364591 42.690627 228.359382 42.690627 Z M 216.36459 87.992713 L 226.125007 60.102086 C 226.489591 58.930211 226.927091 57.695836 226.927091 56.805211 C 226.927091 52.904169 224.000007 50.862503 220.984382 50.862503 C 218.229174 50.862503 215.30209 52.815628 213.869798 56.982295 C 211.031256 65.331253 207.296881 75.914587 204.458339 84.175004 C 203.916673 85.956255 203.223964 88.341671 203.223964 89.857296 C 203.223964 98.206255 210.140631 102.997922 218.317715 102.997922 C 227.010424 102.997922 236.6198 97.664589 242.822925 79.273962 C 243.015633 78.753129 243.104175 78.211462 243.104175 77.690629 C 243.104175 74.935421 240.437508 73.24792 237.770841 73.24792 C 235.359383 73.24792 232.973966 74.482296 231.911466 77.237504 C 227.729174 88.794796 223.020841 92.44063 219.463549 92.44063 C 217.42709 92.44063 216.104173 91.091672 216.104173 89.404171 C 216.104173 88.966671 216.192715 88.513546 216.36459 87.992713 Z M 257.125009 83.003129 C 263.088551 78.122921 267.447926 72.789587 267.447926 65.15417 C 267.447926 57.263545 260.593759 50.862503 250.640634 50.862503 L 238.927091 50.862503 C 235.02605 50.862503 233.161466 53.878128 233.161466 56.982295 C 233.161466 60.018753 235.02605 63.117712 238.562508 63.117712 L 249.750009 63.117712 C 252.875009 63.117712 253.937509 64.352087 253.937509 66.044795 C 253.937509 68.971879 250.750009 72.987504 248.598967 74.742712 C 246.390634 72.789587 243.093758 71.815629 240.166675 71.815629 C 239.447925 71.815629 238.755216 71.898962 238.041675 71.987504 C 231.270841 73.159379 229.406258 78.753129 229.406258 81.940629 C 229.406258 87.711463 234.484383 90.37813 239.27605 90.37813 C 240.968758 90.37813 242.572925 90.029171 243.979175 89.404171 C 245.130217 91.180213 245.58855 93.675005 245.58855 95.888547 C 245.58855 97.664589 245.328133 99.268755 244.8698 100.419797 C 242.114592 101.570839 236.692716 102.654172 233.333341 103.435422 C 223.921882 105.930214 216.265632 108.857298 213.880215 116.596881 C 213.42709 118.091673 213.250007 119.440632 213.250007 120.763548 C 213.250007 129.393757 221.255215 135.076049 229.947924 135.076049 C 242.203133 135.076049 255.000009 120.044798 257.666676 107.273964 C 270.463552 103.258339 280.505219 97.836464 286.619803 79.185421 C 286.901053 78.492712 286.989594 77.779171 286.989594 77.148962 C 286.989594 74.133337 284.666677 72.357295 282.000011 72.357295 C 279.614594 72.357295 277.03126 73.872921 275.796885 77.320837 C 272.671885 86.12813 267.447926 91.550005 260.333343 94.305213 C 260.421884 93.675005 260.421884 93.133338 260.421884 92.612505 C 260.421884 88.164588 258.901051 85.06563 257.125009 83.003129 Z M 241.510425 112.326048 C 237.864591 121.305215 232.359383 123.88334 229.687508 123.88334 C 227.651049 123.88334 226.677091 122.628132 226.677091 121.023965 C 226.677091 120.503132 226.848966 119.784382 227.109382 119.159381 C 228.343757 116.055215 235.630216 113.841673 241.510425 112.326048 Z M 300.916678 83.003129 C 306.88022 78.122921 311.239596 72.789587 311.239596 65.15417 C 311.239596 57.263545 304.385429 50.862503 294.432303 50.862503 L 282.718761 50.862503 C 278.817719 50.862503 276.953135 53.878128 276.953135 56.982295 C 276.953135 60.018753 278.817719 63.117712 282.354177 63.117712 L 293.541678 63.117712 C 296.666678 63.117712 297.729178 64.352087 297.729178 66.044795 C 297.729178 68.971879 294.541678 72.987504 292.395845 74.742712 C 290.182303 72.789587 286.885428 71.815629 283.958344 71.815629 C 283.239594 71.815629 282.546886 71.898962 281.833344 71.987504 C 275.067719 73.159379 273.197927 78.753129 273.197927 81.940629 C 273.197927 87.711463 278.276052 90.37813 283.067719 90.37813 C 284.760427 90.37813 286.364594 90.029171 287.776053 89.404171 C 288.921886 91.180213 289.380219 93.675005 289.380219 95.888547 C 289.380219 97.664589 289.119803 99.268755 288.661469 100.419797 C 285.911469 101.570839 280.489594 102.654172 277.12501 103.435422 C 267.713551 105.930214 260.057301 108.857298 257.671884 116.596881 C 257.218759 118.091673 257.041676 119.440632 257.041676 120.763548 C 257.041676 129.393757 265.046885 135.076049 273.744802 135.076049 C 285.994803 135.076049 298.791678 120.044798 301.458345 107.273964 C 314.255221 103.258339 324.296888 97.836464 330.411472 79.185421 C 330.692722 78.492712 330.781263 77.779171 330.781263 77.148962 C 330.781263 74.133337 328.458347 72.357295 325.79168 72.357295 C 323.406263 72.357295 320.82293 73.872921 319.588554 77.320837 C 316.463554 86.12813 311.239596 91.550005 304.125012 94.305213 C 304.213554 93.675005 304.213554 93.133338 304.213554 92.612505 C 304.213554 88.164588 302.69272 85.06563 300.916678 83.003129 Z M 285.302094 112.326048 C 281.656261 121.305215 276.151052 123.88334 273.484385 123.88334 C 271.442718 123.88334 270.46876 122.628132 270.46876 121.023965 C 270.46876 120.503132 270.640635 119.784382 270.901052 119.159381 C 272.135427 116.055215 279.421885 113.841673 285.302094 112.326048 Z M 372.250016 72.987504 C 369.755224 72.987504 367.026057 74.482296 365.942724 77.862504 C 362.489599 88.794796 356.895848 92.44063 352.885431 92.44063 C 351.39064 92.44063 350.500015 91.638547 350.500015 90.206255 C 350.500015 89.487505 350.67189 88.602088 350.932306 87.622921 L 360.885432 58.846878 C 361.23439 57.784378 361.406265 56.805211 361.406265 55.919794 C 361.406265 52.013544 358.218765 49.977086 354.92189 49.977086 C 352.45314 49.977086 349.869806 51.122919 348.437514 53.336461 C 346.572931 52.185419 343.125014 50.862503 338.593764 50.862503 C 332.713555 50.862503 326.338555 54.050003 323.932305 60.883336 L 315.583346 84.784379 C 315.041679 86.388546 314.692721 87.992713 314.692721 89.59688 C 314.692721 96.951047 320.63543 102.997922 328.463555 102.997922 C 332.630222 102.997922 336.901055 101.133339 340.197931 98.206255 C 343.036473 102.284381 349.32814 102.997922 351.994806 102.997922 C 359.369807 102.997922 369.234391 99.268755 374.916683 84.867713 C 376.156266 81.419796 377.130224 79.185421 377.130224 77.602087 C 377.130224 74.570837 374.833349 72.987504 372.250016 72.987504 Z M 342.953139 72.096879 L 338.677097 85.326046 C 336.812514 91.091672 333.432305 92.44063 331.567722 92.44063 C 329.614597 92.44063 328.640638 91.180213 328.640638 89.143755 C 328.640638 87.992713 328.901055 86.930213 329.182305 86.12813 L 334.864597 68.258337 C 336.552097 62.857295 339.026056 62.143753 340.458347 62.143753 C 342.151056 62.143753 344.015639 63.831253 344.015639 66.846878 C 344.015639 68.169795 343.645848 69.862504 342.953139 72.096879 Z M 394.812517 92.523963 L 425.630227 36.638543 C 426.802102 34.596877 427.151061 32.909376 427.151061 31.409376 C 427.151061 27.852084 424.656269 25.904168 421.640644 25.904168 C 418.796894 25.904168 415.328143 27.768751 413.375018 32.107293 C 399.802101 57.346878 392.057309 71.555212 383.625017 86.930213 C 382.3021 89.227088 380.692725 91.008338 379.45835 90.570838 C 379.005225 90.466671 378.656266 89.945838 378.656266 88.966671 C 378.656266 88.513546 378.744808 87.992713 378.916683 87.279171 L 390.822934 35.945835 C 390.994809 35.143752 391.08335 34.33646 391.08335 33.622918 C 391.08335 28.659376 387.437517 25.904168 383.796892 25.904168 C 380.609391 25.904168 377.484391 28.029168 376.510433 32.64896 L 364.713557 86.300005 C 364.343765 87.711463 364.255224 89.055213 364.255224 90.206255 C 364.255224 98.555214 371.890641 102.997922 379.1771 102.997922 C 384.338558 102.997922 390.281267 100.701047 394.812517 92.523963 Z M 436.213561 42.690627 C 440.203145 42.690627 443.50002 39.393752 443.50002 35.315627 C 443.50002 31.326043 440.203145 28.112501 436.213561 28.112501 C 432.223978 28.112501 428.927103 31.326043 428.927103 35.315627 C 428.927103 39.393752 432.223978 42.690627 436.213561 42.690627 Z M 424.223977 87.992713 L 433.979186 60.102086 C 434.348978 58.930211 434.78127 57.695836 434.78127 56.805211 C 434.78127 52.904169 431.854186 50.862503 428.838561 50.862503 C 426.088561 50.862503 423.161477 52.815628 421.729185 56.982295 C 418.885435 65.331253 415.156268 75.914587 412.317727 84.175004 C 411.770852 85.956255 411.078143 88.341671 411.078143 89.857296 C 411.078143 98.206255 418.000019 102.997922 426.171894 102.997922 C 434.869811 102.997922 444.479187 97.664589 450.682312 79.273962 C 450.87502 78.753129 450.963562 78.211462 450.963562 77.690629 C 450.963562 74.935421 448.291687 73.24792 445.62502 73.24792 C 443.21877 73.24792 440.833353 74.482296 439.770853 77.237504 C 435.583353 88.794796 430.880228 92.44063 427.322936 92.44063 C 425.286477 92.44063 423.963561 91.091672 423.963561 89.404171 C 423.963561 88.966671 424.046894 88.513546 424.223977 87.992713 Z M 468.53648 77.951046 C 464.979188 87.711463 459.385438 92.44063 454.244812 92.44063 C 451.036479 92.44063 449.083354 90.466671 449.083354 88.081255 C 449.083354 87.451046 449.260437 86.732296 449.453145 86.12813 L 458.151063 61.34167 L 463.916688 61.34167 C 468.453146 61.34167 470.859397 58.148961 470.859397 55.201044 C 470.859397 52.904169 469.338563 50.862503 465.958355 50.862503 L 461.968771 50.862503 L 467.932313 33.534376 C 468.104188 32.909376 468.19273 32.388543 468.19273 31.846876 C 468.19273 28.570835 465.869813 25.904168 461.968771 25.904168 C 459.041688 25.904168 456.546896 27.940626 455.484396 31.044793 L 448.369812 50.862503 L 444.640645 50.862503 C 439.848978 50.862503 437.807311 53.878128 437.807311 56.721878 C 437.807311 59.211461 439.328145 61.34167 441.713562 61.34167 L 444.640645 61.34167 L 437.177103 82.742713 L 437.177103 82.659379 C 436.484395 84.784379 436.114603 86.732296 436.114603 88.602088 C 436.114603 97.664589 444.203145 102.997922 453.359396 102.997922 C 464.72398 102.997922 474.218772 94.56563 479.296897 79.987504 C 479.468772 79.362504 479.640647 78.753129 479.640647 78.211462 C 479.640647 75.544796 477.062522 73.872921 474.328147 73.872921 C 472.093772 73.872921 469.59898 75.112504 468.53648 77.951046 Z M 521.572941 72.987504 C 519.078149 72.987504 516.343774 74.482296 515.260441 77.862504 C 511.812524 88.794796 506.218774 92.44063 502.203148 92.44063 C 500.708357 92.44063 499.817732 91.638547 499.817732 90.206255 C 499.817732 89.487505 499.994815 88.602088 500.255232 87.622921 L 510.208357 58.846878 C 510.552107 57.784378 510.729191 56.805211 510.729191 55.919794 C 510.729191 52.013544 507.54169 49.977086 504.244815 49.977086 C 501.770857 49.977086 499.187523 51.122919 497.76044 53.336461 C 495.895856 52.185419 492.44794 50.862503 487.911481 50.862503 C 482.036481 50.862503 475.66148 54.050003 473.250022 60.883336 L 464.901063 84.784379 C 464.359396 86.388546 464.015646 87.992713 464.015646 89.59688 C 464.015646 96.951047 469.958355 102.997922 477.78648 102.997922 C 481.947939 102.997922 486.218773 101.133339 489.515648 98.206255 C 492.359398 102.284381 498.645857 102.997922 501.317732 102.997922 C 508.687524 102.997922 518.557316 99.268755 524.239608 84.867713 C 525.473983 81.419796 526.45315 79.185421 526.45315 77.602087 C 526.45315 74.570837 524.151066 72.987504 521.572941 72.987504 Z M 492.270856 72.096879 L 488.000023 85.326046 C 486.135439 91.091672 482.750022 92.44063 480.885439 92.44063 C 478.932314 92.44063 477.958355 91.180213 477.958355 89.143755 C 477.958355 87.992713 478.218772 86.930213 478.500022 86.12813 L 484.182314 68.258337 C 485.875023 62.857295 488.348981 62.143753 489.776064 62.143753 C 491.468773 62.143753 493.333356 63.831253 493.333356 66.846878 C 493.333356 68.169795 492.963565 69.862504 492.270856 72.096879 Z M 531.531275 88.425005 C 527.432317 88.425005 524.244816 91.638547 524.244816 95.711463 C 524.244816 99.701047 527.432317 102.997922 531.531275 102.997922 C 535.526067 102.997922 538.796901 99.701047 538.796901 95.711463 C 538.796901 91.638547 535.526067 88.425005 531.531275 88.425005 Z M 571.145861 42.690627 C 575.135444 42.690627 578.43232 39.393752 578.43232 35.315627 C 578.43232 31.326043 575.135444 28.112501 571.145861 28.112501 C 567.156277 28.112501 563.859402 31.326043 563.859402 35.315627 C 563.859402 39.393752 567.156277 42.690627 571.145861 42.690627 Z M 559.151068 87.992713 L 568.911486 60.102086 C 569.281277 58.930211 569.713569 57.695836 569.713569 56.805211 C 569.713569 52.904169 566.786486 50.862503 563.77086 50.862503 C 561.015652 50.862503 558.088568 52.815628 556.656277 56.982295 C 553.817735 65.331253 550.088568 75.914587 547.244818 84.175004 C 546.703151 85.956255 546.010443 88.341671 546.010443 89.857296 C 546.010443 98.206255 552.92711 102.997922 561.104194 102.997922 C 569.802111 102.997922 579.406278 97.664589 585.609403 79.273962 C 585.80732 78.753129 585.890653 78.211462 585.890653 77.690629 C 585.890653 74.935421 583.223987 73.24792 580.55732 73.24792 C 578.15107 73.24792 575.765653 74.482296 574.703153 77.237504 C 570.515652 88.794796 565.807319 92.44063 562.255235 92.44063 C 560.213569 92.44063 558.890652 91.091672 558.890652 89.404171 C 558.890652 88.966671 558.979193 88.513546 559.151068 87.992713 Z M 609.34378 84.435421 C 609.34378 84.523963 609.34378 83.091671 608.979196 81.419796 C 609.604196 80.966671 610.234405 80.247921 610.755238 79.471879 C 612.270863 77.237504 614.942738 69.513545 614.942738 65.956253 C 614.942738 56.893753 607.479196 50.862503 597.875029 50.862503 C 589.52607 50.862503 581.630236 55.482294 578.786486 63.378128 L 572.302111 81.680213 C 571.500028 83.893754 571.135444 86.12813 571.135444 88.081255 C 571.135444 97.404172 579.135445 102.997922 588.203153 102.997922 C 595.119821 102.997922 601.432321 100.789589 605.161488 94.388547 C 606.765655 94.826047 608.630238 95.086463 610.494821 95.086463 C 620.96878 95.086463 629.234406 87.622921 632.244823 78.300004 C 632.531281 77.320837 632.703156 76.435421 632.703156 75.633337 C 632.703156 72.357295 630.296906 70.492712 627.713572 70.492712 C 625.328156 70.492712 622.833364 71.898962 621.859405 75.195837 C 619.90628 80.706254 615.828155 84.523963 610.583363 84.523963 C 610.234405 84.523963 609.692738 84.523963 609.34378 84.435421 Z M 601.083363 70.753129 C 600.802113 71.555212 600.541696 72.268754 600.453154 72.987504 C 595.572946 72.440629 591.21357 76.435421 591.21357 81.768754 C 591.302112 84.784379 592.817737 86.388546 594.510446 87.820838 C 593.33857 90.919797 590.781279 92.44063 588.02607 92.44063 C 584.55732 92.44063 583.666695 90.289588 583.666695 88.164588 C 583.666695 86.477088 584.104195 84.867713 584.468778 83.982296 L 590.781279 65.956253 C 591.843779 63.02917 594.942737 61.34167 597.697946 61.34167 C 600.453154 61.34167 602.234404 63.206253 602.234404 65.242712 C 602.234404 66.846878 601.687529 68.888545 601.083363 70.753129 Z M 601.083363 70.753129 " stroke="rgb(80.389404%, 79.60968%, 20.388794%)" stroke-width="0.610708" stroke-opacity="1" stroke-miterlimit="4"/></svg>